<svg width="1600" height="960" viewBox="0 0 1600 960" fill="none" xmlns="http://www.w3.org/2000/svg">
  <defs>
    <linearGradient id="bg" x1="0" y1="0" x2="1600" y2="960" gradientUnits="userSpaceOnUse">
      <stop stop-color="#F7FAFC"/>
      <stop offset="1" stop-color="#EEF4FF"/>
    </linearGradient>
    <linearGradient id="hero" x1="110" y1="92" x2="1490" y2="200" gradientUnits="userSpaceOnUse">
      <stop stop-color="#0F766E"/>
      <stop offset="0.45" stop-color="#2563EB"/>
      <stop offset="1" stop-color="#7C3AED"/>
    </linearGradient>
    <linearGradient id="panel" x1="0" y1="0" x2="0" y2="1">
      <stop stop-color="#FFFFFF" stop-opacity="0.96"/>
      <stop offset="1" stop-color="#F8FAFC" stop-opacity="0.98"/>
    </linearGradient>
    <linearGradient id="accentTeal" x1="0" y1="0" x2="1" y2="1">
      <stop stop-color="#14B8A6"/>
      <stop offset="1" stop-color="#0F766E"/>
    </linearGradient>
    <linearGradient id="accentBlue" x1="0" y1="0" x2="1" y2="1">
      <stop stop-color="#60A5FA"/>
      <stop offset="1" stop-color="#2563EB"/>
    </linearGradient>
    <linearGradient id="accentRose" x1="0" y1="0" x2="1" y2="1">
      <stop stop-color="#FB7185"/>
      <stop offset="1" stop-color="#E11D48"/>
    </linearGradient>
    <linearGradient id="accentAmber" x1="0" y1="0" x2="1" y2="1">
      <stop stop-color="#FBBF24"/>
      <stop offset="1" stop-color="#D97706"/>
    </linearGradient>
    <linearGradient id="accentSlate" x1="0" y1="0" x2="1" y2="1">
      <stop stop-color="#475569"/>
      <stop offset="1" stop-color="#0F172A"/>
    </linearGradient>
    <filter id="shadow" x="-40" y="-40" width="1680" height="1040" filterUnits="userSpaceOnUse" color-interpolation-filters="sRGB">
      <feDropShadow dx="0" dy="16" stdDeviation="20" flood-color="#0F172A" flood-opacity="0.08"/>
    </filter>
    <filter id="softShadow" x="-20" y="-20" width="1640" height="1000" filterUnits="userSpaceOnUse" color-interpolation-filters="sRGB">
      <feDropShadow dx="0" dy="8" stdDeviation="10" flood-color="#0F172A" flood-opacity="0.05"/>
    </filter>
    <marker id="arrowBlue" viewBox="0 0 10 10" refX="8" refY="5" markerWidth="8" markerHeight="8" orient="auto-start-reverse">
      <path d="M0 0L10 5L0 10V0Z" fill="#2563EB"/>
    </marker>
    <marker id="arrowSlate" viewBox="0 0 10 10" refX="8" refY="5" markerWidth="8" markerHeight="8" orient="auto-start-reverse">
      <path d="M0 0L10 5L0 10V0Z" fill="#64748B"/>
    </marker>
  </defs>

  <rect width="1600" height="960" rx="40" fill="url(#bg)"/>
  <circle cx="1420" cy="120" r="170" fill="#DBEAFE" fill-opacity="0.7"/>
  <circle cx="180" cy="860" r="200" fill="#CCFBF1" fill-opacity="0.6"/>
  <circle cx="1360" cy="820" r="120" fill="#FCE7F3" fill-opacity="0.45"/>

  <g filter="url(#shadow)">
    <rect x="88" y="72" width="1424" height="816" rx="36" fill="#FFFFFF" fill-opacity="0.78"/>
  </g>

  <rect x="110" y="92" width="1380" height="118" rx="28" fill="url(#hero)"/>
  <text x="154" y="142" fill="#FFFFFF" font-family="Segoe UI, Arial, sans-serif" font-size="34" font-weight="700">RAG-QA Platform Architecture</text>
  <text x="154" y="178" fill="#E0F2FE" font-family="Segoe UI, Arial, sans-serif" font-size="18" font-weight="500">
    Enterprise knowledge retrieval, grounded answering, data governance, workflow orchestration and analytics
  </text>
  <g opacity="0.95">
    <rect x="1204" y="118" width="112" height="66" rx="18" fill="#FFFFFF" fill-opacity="0.18"/>
    <text x="1232" y="145" fill="#FFFFFF" font-family="Segoe UI, Arial, sans-serif" font-size="15" font-weight="600">RAG</text>
    <text x="1226" y="166" fill="#E0F2FE" font-family="Segoe UI, Arial, sans-serif" font-size="12">Grounded QA</text>
    <rect x="1330" y="118" width="140" height="66" rx="18" fill="#FFFFFF" fill-opacity="0.18"/>
    <text x="1356" y="145" fill="#FFFFFF" font-family="Segoe UI, Arial, sans-serif" font-size="15" font-weight="600">Operations</text>
    <text x="1358" y="166" fill="#E0F2FE" font-family="Segoe UI, Arial, sans-serif" font-size="12">Trace, Cost, Audit</text>
  </g>

  <g filter="url(#softShadow)">
    <rect x="132" y="246" width="300" height="210" rx="28" fill="url(#panel)"/>
    <rect x="456" y="246" width="316" height="210" rx="28" fill="url(#panel)"/>
    <rect x="796" y="246" width="350" height="210" rx="28" fill="url(#panel)"/>
    <rect x="1170" y="246" width="296" height="210" rx="28" fill="url(#panel)"/>

    <rect x="132" y="500" width="470" height="300" rx="28" fill="url(#panel)"/>
    <rect x="626" y="500" width="520" height="300" rx="28" fill="url(#panel)"/>
    <rect x="1170" y="500" width="296" height="300" rx="28" fill="url(#panel)"/>
  </g>

  <text x="156" y="278" fill="#0F172A" font-family="Segoe UI, Arial, sans-serif" font-size="24" font-weight="700">Experience Layer</text>
  <rect x="156" y="294" width="98" height="8" rx="4" fill="url(#accentTeal)"/>
  <rect x="156" y="324" width="252" height="54" rx="18" fill="#F0FDFA"/>
  <circle cx="188" cy="351" r="13" fill="#14B8A6"/>
  <text x="214" y="347" fill="#0F172A" font-family="Segoe UI, Arial, sans-serif" font-size="18" font-weight="700">Web Console</text>
  <text x="214" y="367" fill="#475569" font-family="Segoe UI, Arial, sans-serif" font-size="13">Vue 3, Pinia, Element Plus, SSE UI</text>
  <rect x="156" y="390" width="252" height="42" rx="14" fill="#F8FAFC"/>
  <text x="176" y="416" fill="#334155" font-family="Segoe UI, Arial, sans-serif" font-size="14">KB admin, retrieval debugger, analytics</text>

  <text x="480" y="278" fill="#0F172A" font-family="Segoe UI, Arial, sans-serif" font-size="24" font-weight="700">Gateway Layer</text>
  <rect x="480" y="294" width="98" height="8" rx="4" fill="url(#accentBlue)"/>
  <rect x="480" y="324" width="268" height="62" rx="18" fill="#EFF6FF"/>
  <circle cx="512" cy="355" r="13" fill="#2563EB"/>
  <text x="538" y="350" fill="#0F172A" font-family="Segoe UI, Arial, sans-serif" font-size="18" font-weight="700">API Gateway</text>
  <text x="538" y="370" fill="#475569" font-family="Segoe UI, Arial, sans-serif" font-size="13">Auth, sessions, orchestration, audit</text>
  <rect x="480" y="394" width="268" height="38" rx="14" fill="#F8FAFC"/>
  <text x="500" y="418" fill="#334155" font-family="Segoe UI, Arial, sans-serif" font-size="14">Agent profiles, prompt templates, feedback</text>

  <text x="820" y="278" fill="#0F172A" font-family="Segoe UI, Arial, sans-serif" font-size="24" font-weight="700">Knowledge Layer</text>
  <rect x="820" y="294" width="112" height="8" rx="4" fill="url(#accentRose)"/>
  <rect x="820" y="324" width="302" height="62" rx="18" fill="#FFF1F2"/>
  <circle cx="852" cy="355" r="13" fill="#E11D48"/>
  <text x="878" y="350" fill="#0F172A" font-family="Segoe UI, Arial, sans-serif" font-size="18" font-weight="700">KB Service</text>
  <text x="878" y="370" fill="#475569" font-family="Segoe UI, Arial, sans-serif" font-size="13">Bases, documents, chunks, search, ingest</text>
  <rect x="820" y="394" width="302" height="38" rx="14" fill="#F8FAFC"/>
  <text x="840" y="418" fill="#334155" font-family="Segoe UI, Arial, sans-serif" font-size="14">Chunk governance, connectors, grounded query</text>

  <text x="1194" y="278" fill="#0F172A" font-family="Segoe UI, Arial, sans-serif" font-size="24" font-weight="700">AI Runtime</text>
  <rect x="1194" y="294" width="90" height="8" rx="4" fill="url(#accentAmber)"/>
  <rect x="1194" y="324" width="248" height="62" rx="18" fill="#FFFBEB"/>
  <circle cx="1226" cy="355" r="13" fill="#D97706"/>
  <text x="1252" y="350" fill="#0F172A" font-family="Segoe UI, Arial, sans-serif" font-size="18" font-weight="700">Shared AI Runtime</text>
  <text x="1252" y="370" fill="#475569" font-family="Segoe UI, Arial, sans-serif" font-size="13">LLM, rerank, OCR, prompt routing, safety</text>
  <rect x="1194" y="394" width="248" height="38" rx="14" fill="#F8FAFC"/>
  <text x="1214" y="418" fill="#334155" font-family="Segoe UI, Arial, sans-serif" font-size="14">LangChain, FastEmbed, RapidOCR, traces</text>

  <text x="156" y="532" fill="#0F172A" font-family="Segoe UI, Arial, sans-serif" font-size="24" font-weight="700">Data Sources &amp; Sync</text>
  <rect x="156" y="548" width="120" height="8" rx="4" fill="url(#accentTeal)"/>
  <rect x="156" y="582" width="130" height="64" rx="18" fill="#ECFEFF"/>
  <text x="180" y="617" fill="#0F172A" font-family="Segoe UI, Arial, sans-serif" font-size="17" font-weight="700">Files</text>
  <text x="180" y="636" fill="#475569" font-family="Segoe UI, Arial, sans-serif" font-size="12">PDF, DOCX, TXT, Image</text>
  <rect x="304" y="582" width="130" height="64" rx="18" fill="#ECFEFF"/>
  <text x="328" y="617" fill="#0F172A" font-family="Segoe UI, Arial, sans-serif" font-size="17" font-weight="700">Notion</text>
  <text x="328" y="636" fill="#475569" font-family="Segoe UI, Arial, sans-serif" font-size="12">page sync</text>
  <rect x="452" y="582" width="126" height="64" rx="18" fill="#ECFEFF"/>
  <text x="476" y="617" fill="#0F172A" font-family="Segoe UI, Arial, sans-serif" font-size="17" font-weight="700">Web / IM</text>
  <text x="476" y="636" fill="#475569" font-family="Segoe UI, Arial, sans-serif" font-size="12">Web, Feishu, DingTalk</text>
  <rect x="156" y="666" width="422" height="94" rx="20" fill="#F8FAFC"/>
  <text x="180" y="700" fill="#0F172A" font-family="Segoe UI, Arial, sans-serif" font-size="18" font-weight="700">Connector Registry</text>
  <text x="180" y="726" fill="#475569" font-family="Segoe UI, Arial, sans-serif" font-size="14">Config, schedule, due runs, run history and incremental sync metadata</text>
  <text x="180" y="748" fill="#475569" font-family="Segoe UI, Arial, sans-serif" font-size="14">Supports local directory, URL-based sources and SQL query ingestion</text>

  <text x="650" y="532" fill="#0F172A" font-family="Segoe UI, Arial, sans-serif" font-size="24" font-weight="700">Knowledge Processing Pipeline</text>
  <rect x="650" y="548" width="180" height="8" rx="4" fill="url(#accentRose)"/>
  <rect x="650" y="582" width="472" height="178" rx="22" fill="#FFF7F7"/>
  <rect x="676" y="608" width="92" height="42" rx="14" fill="#FFFFFF"/>
  <text x="698" y="634" fill="#0F172A" font-family="Segoe UI, Arial, sans-serif" font-size="14" font-weight="700">Parse</text>
  <rect x="788" y="608" width="92" height="42" rx="14" fill="#FFFFFF"/>
  <text x="813" y="634" fill="#0F172A" font-family="Segoe UI, Arial, sans-serif" font-size="14" font-weight="700">Chunk</text>
  <rect x="900" y="608" width="92" height="42" rx="14" fill="#FFFFFF"/>
  <text x="921" y="634" fill="#0F172A" font-family="Segoe UI, Arial, sans-serif" font-size="14" font-weight="700">Embed</text>
  <rect x="1012" y="608" width="86" height="42" rx="14" fill="#FFFFFF"/>
  <text x="1033" y="634" fill="#0F172A" font-family="Segoe UI, Arial, sans-serif" font-size="14" font-weight="700">Serve</text>
  <path d="M768 629H788" stroke="#FB7185" stroke-width="3" marker-end="url(#arrowSlate)"/>
  <path d="M880 629H900" stroke="#FB7185" stroke-width="3" marker-end="url(#arrowSlate)"/>
  <path d="M992 629H1012" stroke="#FB7185" stroke-width="3" marker-end="url(#arrowSlate)"/>
  <rect x="676" y="676" width="422" height="62" rx="16" fill="#FFFFFF"/>
  <text x="700" y="702" fill="#0F172A" font-family="Segoe UI, Arial, sans-serif" font-size="16" font-weight="700">Document lifecycle</text>
  <text x="700" y="724" fill="#475569" font-family="Segoe UI, Arial, sans-serif" font-size="13">
    uploaded → parsing_fast → fast_index_ready → hybrid_ready → ready
  </text>
  <text x="700" y="745" fill="#475569" font-family="Segoe UI, Arial, sans-serif" font-size="13">
    Manual chunk edit, split, merge and disable feed back into retrieval quality
  </text>

  <text x="1194" y="532" fill="#0F172A" font-family="Segoe UI, Arial, sans-serif" font-size="24" font-weight="700">Storage &amp; Operations</text>
  <rect x="1194" y="548" width="160" height="8" rx="4" fill="url(#accentSlate)"/>
  <rect x="1194" y="582" width="248" height="64" rx="18" fill="#F8FAFC"/>
  <text x="1218" y="617" fill="#0F172A" font-family="Segoe UI, Arial, sans-serif" font-size="17" font-weight="700">PostgreSQL</text>
  <text x="1218" y="636" fill="#475569" font-family="Segoe UI, Arial, sans-serif" font-size="12">metadata, sessions, audit, analytics</text>
  <rect x="1194" y="662" width="248" height="64" rx="18" fill="#F8FAFC"/>
  <text x="1218" y="697" fill="#0F172A" font-family="Segoe UI, Arial, sans-serif" font-size="17" font-weight="700">MinIO / Object Storage</text>
  <text x="1218" y="716" fill="#475569" font-family="Segoe UI, Arial, sans-serif" font-size="12">uploads, raw files, processing artifacts</text>
  <rect x="1194" y="742" width="248" height="64" rx="18" fill="#F8FAFC"/>
  <text x="1218" y="777" fill="#0F172A" font-family="Segoe UI, Arial, sans-serif" font-size="17" font-weight="700">Qdrant</text>
  <text x="1218" y="796" fill="#475569" font-family="Segoe UI, Arial, sans-serif" font-size="12">dense + sparse retrieval evidence index</text>

  <path d="M432 351H456" stroke="#2563EB" stroke-width="4" marker-end="url(#arrowBlue)"/>
  <path d="M772 351H796" stroke="#2563EB" stroke-width="4" marker-end="url(#arrowBlue)"/>
  <path d="M1146 351H1170" stroke="#2563EB" stroke-width="4" marker-end="url(#arrowBlue)"/>

  <path d="M366 500V470C366 440 390 420 424 420H480" stroke="#64748B" stroke-width="3" stroke-dasharray="8 8" fill="none" marker-end="url(#arrowSlate)"/>
  <path d="M864 500V474C864 444 882 420 910 420H938" stroke="#64748B" stroke-width="3" stroke-dasharray="8 8" fill="none" marker-end="url(#arrowSlate)"/>
  <path d="M1318 500V470C1318 444 1290 420 1268 420H1240" stroke="#64748B" stroke-width="3" stroke-dasharray="8 8" fill="none" marker-end="url(#arrowSlate)"/>

  <path d="M602 650H626" stroke="#2563EB" stroke-width="4" marker-end="url(#arrowBlue)"/>
  <path d="M1146 650H1170" stroke="#2563EB" stroke-width="4" marker-end="url(#arrowBlue)"/>

  <rect x="156" y="830" width="1288" height="34" rx="17" fill="#F8FAFC"/>
  <circle cx="182" cy="847" r="6" fill="#2563EB"/>
  <text x="198" y="852" fill="#334155" font-family="Segoe UI, Arial, sans-serif" font-size="13">Grounded answer with citations</text>
  <circle cx="418" cy="847" r="6" fill="#0F766E"/>
  <text x="434" y="852" fill="#334155" font-family="Segoe UI, Arial, sans-serif" font-size="13">Data governance and sync operations</text>
  <circle cx="720" cy="847" r="6" fill="#E11D48"/>
  <text x="736" y="852" fill="#334155" font-family="Segoe UI, Arial, sans-serif" font-size="13">Knowledge processing and retrieval pipeline</text>
  <circle cx="1076" cy="847" r="6" fill="#D97706"/>
  <text x="1092" y="852" fill="#334155" font-family="Segoe UI, Arial, sans-serif" font-size="13">AI runtime, safety, cost and observability</text>
</svg>
